<svg version="1.0" xmlns="http://www.w3.org/2000/svg" width="682.667" height="682.667" viewBox="0 0 512 512"><path d="M237 .7c-46.8 4.4-86.3 18-122 41.9-38.5 25.7-68.2 59.6-88.6 100.9-12.6 25.8-20.3 51.1-24.6 81-1.7 11.8-1.7 51.2 0 63 4.2 29.5 12 55.3 24.2 80 13.7 28 27.2 46.8 49.4 69.1 22.1 22 41.2 35.7 68.1 48.9 18.8 9.2 30.9 13.7 50 18.5 19.6 4.9 34.3 7 54.5 7.7 58 2 114.3-15.8 161.5-51.1 13.8-10.3 37.9-33.9 47.7-46.6 49.6-64.4 66.3-143.4 46.8-221-5.9-23.5-18.2-52.5-30.6-72-21.1-33.3-53.7-65.3-85.6-84.3C346.5 12.1 300.7-.4 254 .2c-7.4 0-15.1.3-17 .5zm40.6 24.4c67.7 6.6 128 41.6 168.1 97.7 31.2 43.7 46.5 101 41.2 154.8-5.1 52.9-27.3 101-64.2 139.1-17.3 17.9-33.1 30.1-53.7 41.7-69.6 39-153.7 39.4-224 1-20.7-11.3-34.3-21.5-52.6-39.8-22.9-23-37.8-44.7-49.7-72.8-24.9-58.2-24.7-124.1.4-182.5 12.1-28.3 28.7-52.1 51.8-74.5 32.9-32 71.8-52.5 116.1-61.2 22.9-4.5 44.8-5.7 66.6-3.5z"/><path d="M123.5 153.4c-6.3 2.9-12.6 9.7-15.1 16.2-1.8 4.7-1.9 8.6-1.9 86.9v82l2.4 5.2c2.9 6.5 10.1 13.4 16.6 15.9 4.8 1.8 9.2 1.9 130.5 1.9s125.7-.1 130.5-1.9c6.5-2.5 13.7-9.4 16.6-15.9l2.4-5.2v-82c0-78.3-.1-82.2-1.9-86.9-2.5-6.5-8.8-13.3-15.1-16.2l-5-2.4h-255l-5 2.4zm232.9 22.5c-3.9 3.7-99.6 79.1-100.3 79.1-.7 0-96.5-75.4-100.5-79.1-.6-.5 42.3-.9 100.4-.9 58.4 0 101 .4 100.4.9zm-141.9 77.4c19.8 15.8 37.2 28.9 38.8 29.3 1.5.3 4 .3 5.5-.1 1.5-.3 28.8-21.3 62.2-47.8l59.5-47.3.3 73.5c.2 65.1 0 73.7-1.3 75.1-1.4 1.3-15.1 1.5-122.3 1.7-96 .2-121.2 0-123.2-1l-2.5-1.3-.3-74.2-.2-74.2 23.7 18.9c13.1 10.4 40 31.7 59.8 47.4z"/></svg>