<svg version="1.0" xmlns="http://www.w3.org/2000/svg" width="682.667" height="682.667" viewBox="0 0 512 512"><path d="M232.1 1.1C183.5 5.4 133.2 26 94.5 57.5c-11.4 9.2-29.4 27.4-38.4 38.7-22.9 28.7-41.7 67.5-49.5 102.3-4.9 21.8-6 32.5-6 57.5s1.1 35.7 6 57.5c7.9 35.5 27.2 74.9 50.9 104 9.2 11.4 27.4 29.4 38.7 38.4 28.7 22.9 67.5 41.7 102.3 49.5 21.8 4.9 32.5 6 57.5 6s35.7-1.1 57.5-6c26.1-5.8 60.3-20.4 82.8-35.3 38.9-25.9 68.8-59.9 89.3-101.6 16.5-33.7 24.6-65.8 26.1-103.3 2.3-59.8-16.8-118.3-54.5-167.2-8.4-10.9-32.3-34.8-43.2-43.2C361.2 14.1 297.6-4.7 232.1 1.1zM290 19.5c13.3 2 32.3 6.6 45.4 11.1 21.4 7.4 50.1 23.2 69 38.2 9.1 7.1 31.7 29.7 38.8 38.8 15 18.9 30.8 47.6 38.2 69 9.3 27.3 13 49.7 13 79.4 0 24.3-1.5 36.9-6.9 58.5-21.3 84.4-88.6 151.7-173 173-21.6 5.4-34.2 6.9-58.5 6.9-29.7 0-52.1-3.7-79.4-13-21.4-7.4-50.1-23.2-69-38.2-9.1-7.1-31.7-29.7-38.8-38.8-15-18.9-30.8-47.6-38.2-69-4.5-13.3-9.1-32.1-11.3-46.4-2.4-15.9-2.4-50.1 0-66 3.9-25.9 10.9-48.5 22.1-71.5 12.6-25.7 25.1-43.2 46-64.1 14.7-14.6 22.4-21 37.8-31.2 31.7-20.9 69.2-34.1 108.3-38.1 12.3-1.3 43.7-.5 56.5 1.4z"/><path d="M139.5 103c-13.7 2.3-23.5 8.6-30.6 19.8-6.8 10.7-6.4 3.1-6.4 133.2 0 109.8.1 117.9 1.8 123.1 4.3 13.6 15 24.3 28.6 28.6 5.2 1.7 13.3 1.8 123.1 1.8s117.9-.1 123.1-1.8c13.6-4.3 24.3-15 28.6-28.6 1.7-5.2 1.8-13.3 1.8-123.1s-.1-117.9-1.8-123.1c-4.3-13.5-14.4-23.8-28.3-28.6-4.5-1.6-14-1.7-119.9-1.9-63.2-.1-117.2.2-120 .6zM377 121.6c5.5 2.6 12.3 9.7 14.1 15 2.1 5.8 2.1 233 0 238.8-2 5.6-9.3 13.1-14.9 15.3-4.4 1.7-11.4 1.8-120.2 1.8s-115.8-.1-120.2-1.8c-5.6-2.2-12.9-9.7-14.9-15.3-2.1-5.8-2.1-233 0-238.8 1.6-4.5 8.1-12.1 12.5-14.3 1.6-.8 5-1.9 7.5-2.3 2.5-.4 55.7-.7 118.1-.6 113 .1 113.5.1 118 2.2z"/><path d="M339.5 138.9c-9.1 4.1-14.9 13.3-14.8 23.6.1 14.1 10.7 24.7 24.8 24.8 14.3.1 25.4-10.5 25.5-24.3 0-8.7-1.6-12.7-7.4-18.6-3.4-3.3-6.7-5.6-9.2-6.3-5.9-1.6-14.4-1.3-18.9.8zm16.2 17.3c4.5 4.2 2.3 11.9-3.9 14.1-3.2 1.1-7.9-1.4-9.4-4.9-3.4-8.2 6.8-15.3 13.3-9.2zM242.5 171.6c-4.9.8-16.5 4.4-22.1 6.9-16.9 7.5-34.4 25-41.8 41.8-5.9 13.1-7.1 19.2-7.1 35.7 0 16.5 1.2 22.6 7.1 35.7 7.4 16.8 24.9 34.3 41.8 41.8 13 5.8 19.1 7 35.6 7s22.6-1.2 35.6-7c16.9-7.5 34.4-25 41.8-41.8 5.9-13.2 7.1-19.2 7-35.7 0-12.2-.4-16.8-1.8-21.5-6.7-21.9-18.8-38.6-36.2-49.8-14.5-9.4-25.6-12.7-43.4-13.2-7.4-.2-14.8-.1-16.5.1zm29.7 18.3c30.9 7.9 51.8 34.6 51.8 66.1 0 37.4-30.6 68-68 68-50.5 0-83.1-52.8-60.9-98.4 13.7-28.1 46.8-43.4 77.1-35.7z"/></svg>