<svg version="1.0" xmlns="http://www.w3.org/2000/svg" width="682.667" height="682.667" viewBox="0 0 512 512"><path d="M231.5 1.1c-80 8.3-150.1 51.8-192.7 119.6-48.7 77.4-51.6 177.7-7.5 257.8 19.6 35.7 48.8 67.6 82.2 90 33.4 22.3 69 35.7 111 41.7 11.9 1.7 51.2 1.6 63.5-.1 62.2-8.6 114.9-36.1 157.2-82 34.9-37.8 57.2-86.1 65-140.6 1.7-11.8 1.7-51.2 0-63-8.3-58.3-32.1-107.3-71.5-147.4C398.3 36 348.8 10.9 291.5 2.4c-12.3-1.8-47.8-2.6-60-1.3zm61 13.4C371.8 26.8 440.1 77 475 148.5c11.5 23.5 17.6 42.7 22.2 69.5 1.9 10.6 2.2 16.4 2.2 38 0 28.1-1.2 38.5-7.3 62.3-12.6 48.8-43.5 96.3-83.1 127.9-26.8 21.4-59.2 37.7-90.7 45.9-23.5 6-34.3 7.3-61.8 7.3-26.7.1-35.3-.8-57.5-6-69.9-16.5-130.3-64.9-162-129.9-8.5-17.3-13.1-29.9-17.5-46.9-5.8-22.6-7-33.1-7-60.6s1.2-38 7-60.6C35.3 133.6 75.1 80.1 130 47c27.6-16.7 59.9-28.3 90-32.4 6.3-.9 12.9-1.8 14.5-2 7.6-1 47.6.2 58 1.9z"/><path d="M294.5 135.9c-20.3 5.8-36.1 21.2-43.2 42-2.1 6.1-2.6 9.6-2.7 17.9l-.1 10.4-6.9-.7c-28.8-2.8-55.5-17-90.9-48.4-13.6-12-14.7-12.7-17.9-10.1-3.2 2.5-7.5 12.2-9.5 21.2-2.9 13.8.1 30.7 7.9 44.4 2.9 5.2 3 5.6.9 4.5-3.4-1.9-7.4-1-8.7 1.9-1.7 3.8-.1 18.2 2.9 26.9 3.2 9 8.3 16.9 15.4 23.7 5.2 5.1 5.3 5.2 3.1 6.6-3.2 2.1-2.6 6.9 2.3 16.8 5.7 11.5 15.2 21.1 26.4 26.7 4.4 2.1 9.1 4.2 10.5 4.6 2.4.7 2.4.8-2 3.7-12.5 8.4-29.9 12.3-53.1 11.8-17.5-.3-19.2.2-18.7 5.6.7 7.6 28.8 22.1 54.3 28.1 16.2 3.8 27.8 4.8 47.3 4.2 26.5-.8 45.4-5.8 71.7-18.8 43-21.2 73-58.8 85.5-107.3 3.4-13.3 6-30.9 6-40.7v-7.1l9.9-10.4c10.7-11.2 17.1-21.7 17.1-28 0-3-.3-3.4-2.7-3.4-1.6 0-5.7 1.4-9.3 3.1-3.6 1.7-7.6 3.5-8.9 4l-2.4 1 2.6-3.3c5.3-6.6 11.8-17.7 12.4-21.2 1-6.6.1-7-6.9-3.5-8.7 4.4-15.3 6.5-24.3 7.9l-7.6 1.2-5.2-4.1c-6.9-5.3-16.1-9.8-23.9-11.6-8.5-2-23.7-1.8-31.3.4zm28.4 11.2c6.7 1.5 14.7 5.7 21 10.8 5.3 4.3 5.9 4.6 11.1 4.4 3-.1 9.2-1.2 13.7-2.6l8.1-2.4-2.3 3.1c-1.3 1.7-4.9 5.3-7.9 7.9-10.1 8.7-5.8 15.3 8.4 12.7 3.4-.6 6.4-.9 6.6-.7.3.2-2.4 3-5.8 6.2-3.5 3.1-7.8 7.5-9.5 9.8-3.2 3.8-3.3 4.3-3.3 13.1-.1 22-6.4 48.7-16.6 70.3-10.3 21.6-28 42.8-46.9 56.2-15.1 10.6-37.4 20.7-57.6 25.9-28.3 7.4-70.7 4.3-97.4-7.1l-4.9-2.1 10.2-1.3c20-2.5 37.8-10.3 50.1-22 9.9-9.5 8.4-12.9-7.5-16.4-4.8-1-11.1-3-14-4.3-6.3-2.9-15-10.8-18.2-16.4l-2.2-3.9 6-.6c10.7-1.2 15.2-4.4 13.5-9.7-.4-1.2-4.6-3.9-12.1-7.4-18.8-9.1-25.8-17.5-29.8-35.8l-.6-2.6 4.7 1.4c9.5 2.9 17.3 1 17.3-4.1 0-1.3-1.7-4.5-3.7-7.2-11-14.3-13.1-17.3-15.7-23.3-3.5-7.6-4.5-19.2-2.7-28 1.9-9.1 2.2-9.2 9.3-2.4 14.4 13.8 33.8 27.5 50.3 35.5 18.2 8.8 32.9 12.7 51.6 13.6 11.1.6 11.7.5 13.9-1.7 1.7-1.7 2.1-2.9 1.6-5.3-3.3-18.1-.3-31.9 9.7-45.3 6.6-8.8 19.1-16.9 28.7-18.7 4.7-.8 18.5-.6 22.9.4z"/></svg>